<svg xmlns="http://www.w3.org/2000/svg" viewBox="0 0 1710 897" width="1710" height="897" font-family="Inter, system-ui, sans-serif"><rect width="100%" height="100%" fill="#fff"/><text x="30" y="56" font-size="34" font-weight="700" fill="#111827" letter-spacing="-0.5">How the index was built</text><rect x="30" y="86" width="250" height="763" rx="12" fill="#F0FDFA" stroke="#99D5CC"/><path d="M30 98a12 12 0 0 1 12-12h226a12 12 0 0 1 12 12v62h-250z" fill="#0F766E"/><text x="155" y="114" font-size="18" font-weight="600" fill="#fff" text-anchor="middle">Stage 1: Research</text><text x="155" y="136" font-size="13" fill="#E6F4F1" font-weight="400" text-anchor="middle">One agent per country, in its</text><text x="155" y="152" font-size="13" fill="#E6F4F1" font-weight="400" text-anchor="middle">own languages (198 countries)</text><path d="M285 420h16" stroke="#9CA3AF" stroke-width="1.5"/><path d="M301 416l7 4-7 4z" fill="#9CA3AF"/><rect x="310" y="86" width="250" height="763" rx="12" fill="#F0FDFA" stroke="#99D5CC"/><path d="M310 98a12 12 0 0 1 12-12h226a12 12 0 0 1 12 12v62h-250z" fill="#0F766E"/><text x="435" y="114" font-size="18" font-weight="600" fill="#fff" text-anchor="middle">Stage 2: Cross-check</text><text x="435" y="136" font-size="13" fill="#E6F4F1" font-weight="400" text-anchor="middle">Second agent session, same model</text><text x="435" y="152" font-size="13" fill="#E6F4F1" font-weight="400" text-anchor="middle">family</text><path d="M565 420h16" stroke="#9CA3AF" stroke-width="1.5"/><path d="M581 416l7 4-7 4z" fill="#9CA3AF"/><rect x="590" y="86" width="250" height="763" rx="12" fill="#F0FDFA" stroke="#99D5CC"/><path d="M590 98a12 12 0 0 1 12-12h226a12 12 0 0 1 12 12v62h-250z" fill="#0F766E"/><text x="715" y="114" font-size="18" font-weight="600" fill="#fff" text-anchor="middle">Stage 3: Review and audit</text><text x="715" y="136" font-size="13" fill="#E6F4F1" font-weight="400" text-anchor="middle">Agent audit; authors rule on</text><text x="715" y="152" font-size="13" fill="#E6F4F1" font-weight="400" text-anchor="middle">findings</text><path d="M845 420h16" stroke="#9CA3AF" stroke-width="1.5"/><path d="M861 416l7 4-7 4z" fill="#9CA3AF"/><rect x="870" y="86" width="250" height="763" rx="12" fill="#F0FDFA" stroke="#99D5CC"/><path d="M870 98a12 12 0 0 1 12-12h226a12 12 0 0 1 12 12v62h-250z" fill="#0F766E"/><text x="995" y="114" font-size="18" font-weight="600" fill="#fff" text-anchor="middle">Stage 4: Scoring</text><text x="995" y="136" font-size="13" fill="#E6F4F1" font-weight="400" text-anchor="middle">Weighted sum, 0 to 100</text><path d="M1125 420h16" stroke="#9CA3AF" stroke-width="1.5"/><path d="M1141 416l7 4-7 4z" fill="#9CA3AF"/><rect x="1150" y="86" width="250" height="763" rx="12" fill="#F0FDFA" stroke="#99D5CC"/><path d="M1150 98a12 12 0 0 1 12-12h226a12 12 0 0 1 12 12v62h-250z" fill="#0F766E"/><text x="1275" y="114" font-size="18" font-weight="600" fill="#fff" text-anchor="middle">Stage 5: Testing</text><text x="1275" y="136" font-size="13" fill="#E6F4F1" font-weight="400" text-anchor="middle">Four checks</text><path d="M1405 420h16" stroke="#9CA3AF" stroke-width="1.5"/><path d="M1421 416l7 4-7 4z" fill="#9CA3AF"/><rect x="1430" y="86" width="250" height="763" rx="12" fill="#F0FDFA" stroke="#99D5CC"/><path d="M1430 98a12 12 0 0 1 12-12h226a12 12 0 0 1 12 12v62h-250z" fill="#0F766E"/><text x="1555" y="114" font-size="18" font-weight="600" fill="#fff" text-anchor="middle">Stage 6: Publication</text><text x="1555" y="136" font-size="13" fill="#E6F4F1" font-weight="400" text-anchor="middle">Open data</text><rect x="44" y="176" width="222" height="28" rx="14" fill="#fff" stroke="#99D5CC"/><g transform="translate(52,178) scale(0.6)" fill="none" stroke="#0F766E" stroke-width="2" stroke-linecap="round" stroke-linejoin="round"><path d="M6 8h28v24H6z"/><path d="M20 8v24M10 14h6M10 19h6M24 14h6M24 19h6"/></g><text x="82" y="194" font-size="12.5" fill="#374151">Laws</text><rect x="44" y="210" width="222" height="28" rx="14" fill="#fff" stroke="#99D5CC"/><g transform="translate(52,212) scale(0.6)" fill="none" stroke="#0F766E" stroke-width="2" stroke-linecap="round" stroke-linejoin="round"><path d="M4 14L20 5l16 9z"/><path d="M8 16v14M16 16v14M24 16v14M32 16v14M4 33h32"/></g><text x="82" y="228" font-size="12.5" fill="#374151">Government and regulators</text><rect x="44" y="244" width="222" height="28" rx="14" fill="#fff" stroke="#99D5CC"/><g transform="translate(52,246) scale(0.6)" fill="none" stroke="#0F766E" stroke-width="2" stroke-linecap="round" stroke-linejoin="round"><path d="M8 28l14-14M18 10l8 8M14 14l8 8M24 6l10 10M6 34h18"/></g><text x="82" y="262" font-size="12.5" fill="#374151">Court decisions</text><rect x="44" y="278" width="222" height="28" rx="14" fill="#fff" stroke="#99D5CC"/><g transform="translate(52,280) scale(0.6)" fill="none" stroke="#0F766E" stroke-width="2" stroke-linecap="round" stroke-linejoin="round"><rect x="5" y="7" width="30" height="26" rx="2"/><path d="M10 13h20M10 19h9M10 25h9M23 19h7v6h-7z"/></g><text x="82" y="296" font-size="12.5" fill="#374151">Published news</text><text x="155" y="332" font-size="13" fill="#111827" font-weight="600" text-anchor="middle">Public sources only. The</text><text x="155" y="349" font-size="13" fill="#111827" font-weight="600" text-anchor="middle">rubric requires every cited</text><text x="155" y="366" font-size="13" fill="#111827" font-weight="600" text-anchor="middle">source to be opened.</text><rect x="44" y="389" width="222" height="136" rx="10" fill="#fff" stroke="#99D5CC"/><g transform="translate(135,405)" fill="none" stroke="#0F766E" stroke-width="2" stroke-linecap="round" stroke-linejoin="round"><rect x="7" y="12" width="26" height="20" rx="5"/><path d="M20 12V6"/><circle cx="20" cy="5" r="2"/><circle cx="15" cy="21" r="2"/><circle cx="25" cy="21" r="2"/><path d="M15 27h10"/><path d="M4 19v6M36 19v6"/></g><text x="155" y="467" font-size="13" fill="#111827" font-weight="600" text-anchor="middle">AI research agent</text><text x="155" y="485" font-size="13" fill="#374151" font-weight="400" text-anchor="middle">Claude Opus 5.5, 30 Sep to 2</text><text x="155" y="502" font-size="13" fill="#374151" font-weight="400" text-anchor="middle">Oct 2026</text><rect x="44" y="539" width="222" height="170" rx="10" fill="#fff" stroke="#99D5CC"/><g transform="translate(135,555)" fill="none" stroke="#0F766E" stroke-width="2" stroke-linecap="round" stroke-linejoin="round"><path d="M8 3h17l8 8v26H8z"/><path d="M25 3v8h8"/><path d="M13 18h14M13 23h14M13 28h9"/></g><text x="155" y="617" font-size="13" fill="#111827" font-weight="600" text-anchor="middle">Draft country file</text><text x="155" y="635" font-size="13" fill="#374151" font-weight="400" text-anchor="middle">8 category scores, 0 to 100,</text><text x="155" y="652" font-size="13" fill="#374151" font-weight="400" text-anchor="middle">each with a summary and</text><text x="155" y="669" font-size="13" fill="#374151" font-weight="400" text-anchor="middle">dated sources, against a</text><text x="155" y="686" font-size="13" fill="#374151" font-weight="400" text-anchor="middle">written rubric</text><rect x="324" y="176" width="222" height="119" rx="10" fill="#fff" stroke="#99D5CC"/><g transform="translate(415,192)" fill="none" stroke="#0F766E" stroke-width="2" stroke-linecap="round" stroke-linejoin="round"><rect x="7" y="12" width="26" height="20" rx="5"/><path d="M20 12V6"/><circle cx="20" cy="5" r="2"/><circle cx="15" cy="21" r="2"/><circle cx="25" cy="21" r="2"/><path d="M15 27h10"/><path d="M4 19v6M36 19v6"/></g><text x="435" y="254" font-size="13" fill="#111827" font-weight="600" text-anchor="middle">AI cross-check agent</text><text x="435" y="272" font-size="13" fill="#374151" font-weight="400" text-anchor="middle">a separate session</text><rect x="324" y="309" width="222" height="153" rx="10" fill="#fff" stroke="#99D5CC"/><g transform="translate(415,325)" fill="none" stroke="#0F766E" stroke-width="2" stroke-linecap="round" stroke-linejoin="round"><circle cx="20" cy="20" r="12"/><circle cx="20" cy="20" r="5"/><path d="M20 2v8M20 30v8M2 20h8M30 20h8"/></g><text x="435" y="387" font-size="13" fill="#111827" font-weight="600" text-anchor="middle">Rubric anchors:</text><text x="435" y="405" font-size="13" fill="#374151" font-weight="400" text-anchor="middle">each score compared with the</text><text x="435" y="422" font-size="13" fill="#374151" font-weight="400" text-anchor="middle">anchor band for its legal</text><text x="435" y="439" font-size="13" fill="#374151" font-weight="400" text-anchor="middle">situation</text><rect x="324" y="476" width="222" height="136" rx="10" fill="#fff" stroke="#99D5CC"/><g transform="translate(415,492)" fill="none" stroke="#0F766E" stroke-width="2" stroke-linecap="round" stroke-linejoin="round"><circle cx="20" cy="20" r="4"/><circle cx="7" cy="8" r="3"/><circle cx="33" cy="8" r="3"/><circle cx="7" cy="32" r="3"/><circle cx="33" cy="32" r="3"/><path d="M10 10l7 7M30 10l-7 7M10 30l7-7M30 30l-7-7"/></g><text x="435" y="554" font-size="13" fill="#111827" font-weight="600" text-anchor="middle">Publisher classes:</text><text x="435" y="572" font-size="13" fill="#374151" font-weight="400" text-anchor="middle">every cited publisher</text><text x="435" y="589" font-size="13" fill="#374151" font-weight="400" text-anchor="middle">reclassified</text><rect x="324" y="626" width="222" height="119" rx="10" fill="#fff" stroke="#99D5CC"/><g transform="translate(415,642)" fill="none" stroke="#0F766E" stroke-width="2" stroke-linecap="round" stroke-linejoin="round"><circle cx="20" cy="20" r="15"/><ellipse cx="20" cy="20" rx="6.5" ry="15"/><path d="M5 20h30M8 12h24M8 28h24"/></g><text x="435" y="704" font-size="13" fill="#111827" font-weight="600" text-anchor="middle">Links:</text><text x="435" y="722" font-size="13" fill="#374151" font-weight="400" text-anchor="middle">every cited link rechecked</text><rect x="604" y="176" width="222" height="136" rx="10" fill="#fff" stroke="#99D5CC"/><g transform="translate(695,192)" fill="none" stroke="#0F766E" stroke-width="2" stroke-linecap="round" stroke-linejoin="round"><path d="M6 3h17l8 8v20H6z"/><path d="M23 3v8h8"/><path d="M11 17h12M11 22h8"/><circle cx="30" cy="31" r="7" fill="#fff"/><path d="M26.5 31l2.5 2.5 4.5-5"/></g><text x="715" y="254" font-size="13" fill="#111827" font-weight="600" text-anchor="middle">Authors rule</text><text x="715" y="272" font-size="13" fill="#374151" font-weight="400" text-anchor="middle">on every audit finding and</text><text x="715" y="289" font-size="13" fill="#374151" font-weight="400" text-anchor="middle">every proposed score change</text><rect x="604" y="326" width="222" height="136" rx="10" fill="#fff" stroke="#99D5CC"/><g transform="translate(695,342)" fill="none" stroke="#0F766E" stroke-width="2" stroke-linecap="round" stroke-linejoin="round"><path d="M20 5v29M10 34h20M8 10h24"/><path d="M8 10l-5 12h10zM32 10l-5 12h10z"/></g><text x="715" y="404" font-size="13" fill="#111827" font-weight="600" text-anchor="middle">Consistency audit by agents:</text><text x="715" y="422" font-size="13" fill="#374151" font-weight="400" text-anchor="middle">countries with the same</text><text x="715" y="439" font-size="13" fill="#374151" font-weight="400" text-anchor="middle">legal right compared</text><rect x="604" y="476" width="222" height="136" rx="10" fill="#fff" stroke="#99D5CC"/><g transform="translate(695,492)" fill="none" stroke="#0F766E" stroke-width="2" stroke-linecap="round" stroke-linejoin="round"><path d="M6 3h17l8 8v20H6z"/><path d="M23 3v8h8"/><path d="M11 17h12M11 22h8"/><circle cx="30" cy="31" r="7" fill="#fff"/><path d="M26.5 31l2.5 2.5 4.5-5"/></g><text x="715" y="554" font-size="13" fill="#111827" font-weight="600" text-anchor="middle">Published change log</text><text x="715" y="572" font-size="13" fill="#374151" font-weight="400" text-anchor="middle">every score change, with its</text><text x="715" y="589" font-size="13" fill="#374151" font-weight="400" text-anchor="middle">reason</text><rect x="884" y="176" width="222" height="326" rx="10" fill="#fff" stroke="#99D5CC"/><text x="896" y="198" font-size="12.5" fill="#374151">Access to the full record</text><rect x="896" y="205" width="162.0" height="7" rx="2" fill="#0F766E"/><text x="1064" y="212" font-size="11" font-family="JetBrains Mono" fill="#6B7280">20%</text><text x="896" y="236" font-size="12.5" fill="#374151">Control and consent</text><rect x="896" y="243" width="162.0" height="7" rx="2" fill="#0F766E"/><text x="1064" y="250" font-size="11" font-family="JetBrains Mono" fill="#6B7280">20%</text><text x="896" y="274" font-size="12.5" fill="#374151">Privacy and security</text><rect x="896" y="281" width="121.5" height="7" rx="2" fill="#0F766E"/><text x="1023.5" y="288" font-size="11" font-family="JetBrains Mono" fill="#6B7280">15%</text><text x="896" y="312" font-size="12.5" fill="#374151">Connected care journey</text><rect x="896" y="319" width="121.5" height="7" rx="2" fill="#0F766E"/><text x="1023.5" y="326" font-size="11" font-family="JetBrains Mono" fill="#6B7280">15%</text><text x="896" y="350" font-size="12.5" fill="#374151">Protection from commercial use</text><rect x="896" y="357" width="81.0" height="7" rx="2" fill="#0F766E"/><text x="983" y="364" font-size="11" font-family="JetBrains Mono" fill="#6B7280">10%</text><text x="896" y="388" font-size="12.5" fill="#374151">Clinician access</text><rect x="896" y="395" width="81.0" height="7" rx="2" fill="#0F766E"/><text x="983" y="402" font-size="11" font-family="JetBrains Mono" fill="#6B7280">10%</text><text x="896" y="426" font-size="12.5" fill="#374151">Research consent</text><rect x="896" y="433" width="40.5" height="7" rx="2" fill="#0F766E"/><text x="942.5" y="440" font-size="11" font-family="JetBrains Mono" fill="#6B7280">5%</text><text x="896" y="464" font-size="12.5" fill="#374151">Clinical AI governance</text><rect x="896" y="471" width="40.5" height="7" rx="2" fill="#0F766E"/><text x="942.5" y="478" font-size="11" font-family="JetBrains Mono" fill="#6B7280">5%</text><rect x="884" y="516" width="222" height="64" rx="10" fill="#fff" stroke="#99D5CC"/><text x="995" y="544" font-size="12" fill="#111827" text-anchor="middle">Overall = Σ category score × weight</text><text x="995" y="564" font-size="12.5" fill="#6B7280" text-anchor="middle">weights sum to 100%; 0 to 100</text><rect x="884" y="594" width="222" height="142" rx="10" fill="#fff" stroke="#99D5CC"/><text x="995" y="618" font-size="14" font-weight="600" fill="#111827" text-anchor="middle">Five bands, to scale</text><rect x="896.0" y="630" width="49.5" height="22" fill="#AADDD4"/><text x="920.8" y="686" font-size="9.5" fill="#111827" text-anchor="middle">Poor</text><text x="920.8" y="702" font-size="10.5" font-family="JetBrains Mono" fill="#111827" font-weight="600" text-anchor="middle">12</text><rect x="945.5" y="630" width="39.6" height="22" fill="#80C7BB"/><text x="965.3" y="686" font-size="9.5" fill="#111827" text-anchor="middle">Weak</text><text x="965.3" y="702" font-size="10.5" font-family="JetBrains Mono" fill="#111827" font-weight="600" text-anchor="middle">111</text><rect x="985.1" y="630" width="39.6" height="22" fill="#50AEA0"/><text x="1004.9" y="686" font-size="9.5" fill="#111827" text-anchor="middle">Mixed</text><text x="1004.9" y="702" font-size="10.5" font-family="JetBrains Mono" fill="#111827" font-weight="600" text-anchor="middle">66</text><rect x="1024.7" y="630" width="39.6" height="22" fill="#0D9488"/><text x="1044.5" y="686" font-size="9.5" fill="#111827" text-anchor="middle">Strong</text><text x="1044.5" y="702" font-size="10.5" font-family="JetBrains Mono" fill="#111827" font-weight="600" text-anchor="middle">9</text><rect x="1064.3" y="630" width="29.7" height="22" fill="#0F766E"/><text x="1079.2" y="686" font-size="9.5" fill="#111827" text-anchor="middle">Leading</text><text x="1079.2" y="702" font-size="10.5" font-family="JetBrains Mono" fill="#111827" font-weight="600" text-anchor="middle">0</text><text x="896.0" y="666" font-size="9.5" font-family="JetBrains Mono" fill="#6B7280" text-anchor="middle">0</text><text x="945.5" y="666" font-size="9.5" font-family="JetBrains Mono" fill="#6B7280" text-anchor="middle">25</text><text x="985.1" y="666" font-size="9.5" font-family="JetBrains Mono" fill="#6B7280" text-anchor="middle">45</text><text x="1024.7" y="666" font-size="9.5" font-family="JetBrains Mono" fill="#6B7280" text-anchor="middle">65</text><text x="1064.3" y="666" font-size="9.5" font-family="JetBrains Mono" fill="#6B7280" text-anchor="middle">85</text><text x="1094.0" y="666" font-size="9.5" font-family="JetBrains Mono" fill="#6B7280" text-anchor="middle">100</text><text x="995" y="722" font-size="10.5" fill="#6B7280" text-anchor="middle">countries in each band</text><rect x="1164" y="176" width="222" height="170" rx="10" fill="#fff" stroke="#99D5CC"/><g transform="translate(1255,192)" fill="none" stroke="#0F766E" stroke-width="2" stroke-linecap="round" stroke-linejoin="round"><path d="M3 36h34"/><path d="M4 35c7 0 9-28 16-28s9 28 16 28"/><path d="M20 8v27" stroke-dasharray="3 3"/></g><text x="1275" y="254" font-size="13" fill="#111827" font-weight="600" text-anchor="middle">Stability:</text><text x="1275" y="272" font-size="13" fill="#374151" font-weight="400" text-anchor="middle">10,000 draws re-weight the</text><text x="1275" y="289" font-size="13" fill="#374151" font-weight="400" text-anchor="middle">categories and perturb the</text><text x="1275" y="306" font-size="13" fill="#374151" font-weight="400" text-anchor="middle">scores; a rank range for</text><text x="1275" y="323" font-size="13" fill="#374151" font-weight="400" text-anchor="middle">each country</text><rect x="1164" y="360" width="222" height="187" rx="10" fill="#fff" stroke="#99D5CC"/><g transform="translate(1255,376)" fill="none" stroke="#0F766E" stroke-width="2" stroke-linecap="round" stroke-linejoin="round"><path d="M3 6h13l5 5v18H3z"/><path d="M19 11h13l5 5v18H19z" fill="#fff"/><path d="M24 22l3 3 6-6"/></g><text x="1275" y="438" font-size="13" fill="#111827" font-weight="600" text-anchor="middle">Blind re-scoring:</text><text x="1275" y="456" font-size="13" fill="#374151" font-weight="400" text-anchor="middle">a separate session of the</text><text x="1275" y="473" font-size="13" fill="#374151" font-weight="400" text-anchor="middle">same model family re-scores</text><text x="1275" y="490" font-size="13" fill="#374151" font-weight="400" text-anchor="middle">a random sample of 64 cells</text><text x="1275" y="507" font-size="13" fill="#374151" font-weight="400" text-anchor="middle">(58 scorable) from the</text><text x="1275" y="524" font-size="13" fill="#374151" font-weight="400" text-anchor="middle">sources alone</text><rect x="1164" y="561" width="222" height="120" rx="10" fill="#fff" stroke="#99D5CC"/><g transform="translate(1255,577)" fill="none" stroke="#0F766E" stroke-width="2" stroke-linecap="round" stroke-linejoin="round"><circle cx="20" cy="20" r="15"/><ellipse cx="20" cy="20" rx="6.5" ry="15"/><path d="M5 20h30M8 12h24M8 28h24"/></g><text x="1275" y="639" font-size="13" fill="#111827" font-weight="600" text-anchor="middle">Comparison with outside</text><text x="1275" y="657" font-size="13" fill="#111827" font-weight="600" text-anchor="middle">measures</text><rect x="1164" y="695" width="222" height="136" rx="10" fill="#fff" stroke="#99D5CC"/><g transform="translate(1255,711)" fill="none" stroke="#0F766E" stroke-width="2" stroke-linecap="round" stroke-linejoin="round"><path d="M6 3h17l8 8v20H6z"/><path d="M23 3v8h8"/><path d="M11 17h12M11 22h8"/><circle cx="30" cy="31" r="7" fill="#fff"/><path d="M26.5 31l2.5 2.5 4.5-5"/></g><text x="1275" y="773" font-size="13" fill="#111827" font-weight="600" text-anchor="middle">Link check:</text><text x="1275" y="791" font-size="13" fill="#374151" font-weight="400" text-anchor="middle">7,003 of 7,156 cited links</text><text x="1275" y="808" font-size="13" fill="#374151" font-weight="400" text-anchor="middle">opened</text><rect x="1444" y="176" width="222" height="119" rx="10" fill="#fff" stroke="#99D5CC"/><g transform="translate(1535,192)" fill="none" stroke="#0F766E" stroke-width="2" stroke-linecap="round" stroke-linejoin="round"><rect x="5" y="5" width="30" height="30" rx="3"/><path d="M5 14h30M5 23h30M15 5v30M25 5v30"/></g><text x="1555" y="254" font-size="13" fill="#111827" font-weight="600" text-anchor="middle">Scores and every source</text><text x="1555" y="272" font-size="13" fill="#374151" font-weight="400" text-anchor="middle">CSV and JSON, CC BY 4.0</text><rect x="1444" y="309" width="222" height="119" rx="10" fill="#fff" stroke="#99D5CC"/><g transform="translate(1535,325)" fill="none" stroke="#0F766E" stroke-width="2" stroke-linecap="round" stroke-linejoin="round"><path d="M12 3h17l6 6v24H12z"/><path d="M8 7v30h21" /><path d="M17 15h13M17 20h13M17 25h8"/></g><text x="1555" y="387" font-size="13" fill="#111827" font-weight="600" text-anchor="middle">198 country briefs</text><text x="1555" y="405" font-size="13" fill="#374151" font-weight="400" text-anchor="middle">one page each</text><rect x="1444" y="442" width="222" height="102" rx="10" fill="#fff" stroke="#99D5CC"/><g transform="translate(1535,458)" fill="none" stroke="#0F766E" stroke-width="2" stroke-linecap="round" stroke-linejoin="round"><path d="M7 5h22a4 4 0 0 1 4 4v26H11a4 4 0 0 1-4-4z"/><path d="M7 31a4 4 0 0 1 4-4h22"/><path d="M13 12h14M13 17h10"/></g><text x="1555" y="520" font-size="13" fill="#111827" font-weight="600" text-anchor="middle">The paper</text><rect x="1444" y="566" width="222" height="170" rx="10" fill="#fff" stroke="#99D5CC" stroke-dasharray="5 4"/><g transform="translate(1535,582)" fill="none" stroke="#0F766E" stroke-width="2" stroke-linecap="round" stroke-linejoin="round"><path d="M8 3h17l8 8v26H8z"/><path d="M25 3v8h8"/><path d="M13 18h14M13 23h14M13 28h9"/></g><text x="1555" y="644" font-size="13" fill="#111827" font-weight="600" text-anchor="middle">Beside the scores, never in them</text><text x="1555" y="666" font-size="13" fill="#374151" font-weight="400" text-anchor="middle">463 published accounts from</text><text x="1555" y="683" font-size="13" fill="#374151" font-weight="400" text-anchor="middle">regulators, courts and the</text><text x="1555" y="700" font-size="13" fill="#374151" font-weight="400" text-anchor="middle">news, shown with each country.</text><text x="1555" y="717" font-size="13" fill="#374151" font-weight="400" text-anchor="middle">They do not change any score.</text><text x="30" y="879" font-size="12" fill="#6B7280">Method as in Section 3 of the paper. Rubric v1.1. 198 countries, data as of 2026-10-02. Source: Health Record Rights Index, SuperTruth.</text></svg>