<svg xmlns="http://www.w3.org/2000/svg" viewBox="0 0 664 289" width="664" height="289" font-family="Inter, system-ui, sans-serif"><rect width="664" height="289" fill="#fff"/><line x1="90.0" y1="30.0" x2="90.0" y2="194.0" stroke="#E5E7EB" stroke-width="0.5"/><text x="90.0" y="206.0" font-size="9.9" fill="#6B7280" text-anchor="middle" font-family="JetBrains Mono, monospace">1%</text><line x1="156.0" y1="30.0" x2="156.0" y2="194.0" stroke="#E5E7EB" stroke-width="0.5"/><text x="156.0" y="206.0" font-size="9.9" fill="#6B7280" text-anchor="middle" font-family="JetBrains Mono, monospace">2%</text><line x1="243.3" y1="30.0" x2="243.3" y2="194.0" stroke="#E5E7EB" stroke-width="0.5"/><text x="243.3" y="206.0" font-size="9.9" fill="#6B7280" text-anchor="middle" font-family="JetBrains Mono, monospace">5%</text><line x1="309.3" y1="30.0" x2="309.3" y2="194.0" stroke="#E5E7EB" stroke-width="0.5"/><text x="309.3" y="206.0" font-size="9.9" fill="#6B7280" text-anchor="middle" font-family="JetBrains Mono, monospace">10%</text><line x1="375.4" y1="30.0" x2="375.4" y2="194.0" stroke="#E5E7EB" stroke-width="0.5"/><text x="375.4" y="206.0" font-size="9.9" fill="#6B7280" text-anchor="middle" font-family="JetBrains Mono, monospace">20%</text><line x1="462.6" y1="30.0" x2="462.6" y2="194.0" stroke="#E5E7EB" stroke-width="0.5"/><text x="462.6" y="206.0" font-size="9.9" fill="#6B7280" text-anchor="middle" font-family="JetBrains Mono, monospace">50%</text><line x1="243.3" y1="18.0" x2="243.3" y2="194.0" stroke="#0F766E" stroke-width="0.9"/><text x="247.3" y="14.0" font-size="10.2" fill="#0F766E" font-weight="600">first, or tied for first, in 5% of draws:</text><text x="247.3" y="26.0" font-size="10.2" fill="#0F766E" font-weight="600">the lead-group line</text><text x="0.0" y="46.0" font-size="10.8" fill="#111827" font-weight="600">Finland</text><line x1="467.8" y1="42.0" x2="470.7" y2="42.0" stroke="#9CA3AF" stroke-width="0.6"/><line x1="470.5" y1="38.5" x2="470.5" y2="45.5" stroke="#9CA3AF" stroke-width="0.6"/><line x1="469.5" y1="38.5" x2="469.5" y2="45.5" stroke="#9CA3AF" stroke-width="0.6"/><line x1="469.8" y1="38.5" x2="469.8" y2="45.5" stroke="#9CA3AF" stroke-width="0.6"/><line x1="468.4" y1="38.5" x2="468.4" y2="45.5" stroke="#9CA3AF" stroke-width="0.6"/><line x1="470.7" y1="38.5" x2="470.7" y2="45.5" stroke="#9CA3AF" stroke-width="0.6"/><line x1="469.7" y1="38.5" x2="469.7" y2="45.5" stroke="#9CA3AF" stroke-width="0.6"/><line x1="468.7" y1="38.5" x2="468.7" y2="45.5" stroke="#9CA3AF" stroke-width="0.6"/><line x1="467.8" y1="38.5" x2="467.8" y2="45.5" stroke="#9CA3AF" stroke-width="0.6"/><line x1="467.9" y1="38.5" x2="467.9" y2="45.5" stroke="#9CA3AF" stroke-width="0.6"/><line x1="468.4" y1="38.5" x2="468.4" y2="45.5" stroke="#9CA3AF" stroke-width="0.6"/><line x1="469.3" y1="38.5" x2="469.3" y2="45.5" stroke="#9CA3AF" stroke-width="0.6"/><line x1="470.1" y1="38.5" x2="470.1" y2="45.5" stroke="#9CA3AF" stroke-width="0.6"/><line x1="469.9" y1="38.5" x2="469.9" y2="45.5" stroke="#9CA3AF" stroke-width="0.6"/><line x1="469.8" y1="38.5" x2="469.8" y2="45.5" stroke="#9CA3AF" stroke-width="0.6"/><line x1="469.1" y1="38.5" x2="469.1" y2="45.5" stroke="#9CA3AF" stroke-width="0.6"/><line x1="469.1" y1="35.0" x2="469.1" y2="49.0" stroke="#0F766E" stroke-width="1.8" stroke-linecap="round"/><circle cx="445.2" cy="42.0" r="3" fill="none" stroke="#374151" stroke-width="0.9"/><text x="490.0" y="46.0" font-size="10.2" fill="#111827" font-family="JetBrains Mono, monospace">53.5%</text><text x="536.0" y="46.0" font-size="10.2" fill="#374151" font-family="JetBrains Mono, monospace">41.6%</text><text x="584.0" y="46.0" font-size="10.2" fill="#374151" font-family="JetBrains Mono, monospace">16 of 16</text><text x="0.0" y="66.0" font-size="10.8" fill="#111827" font-weight="600">Denmark</text><line x1="400.7" y1="62.0" x2="406.8" y2="62.0" stroke="#9CA3AF" stroke-width="0.6"/><line x1="400.7" y1="58.5" x2="400.7" y2="65.5" stroke="#9CA3AF" stroke-width="0.6"/><line x1="403.2" y1="58.5" x2="403.2" y2="65.5" stroke="#9CA3AF" stroke-width="0.6"/><line x1="403.1" y1="58.5" x2="403.1" y2="65.5" stroke="#9CA3AF" stroke-width="0.6"/><line x1="403.9" y1="58.5" x2="403.9" y2="65.5" stroke="#9CA3AF" stroke-width="0.6"/><line x1="401.9" y1="58.5" x2="401.9" y2="65.5" stroke="#9CA3AF" stroke-width="0.6"/><line x1="403.5" y1="58.5" x2="403.5" y2="65.5" stroke="#9CA3AF" stroke-width="0.6"/><line x1="403.2" y1="58.5" x2="403.2" y2="65.5" stroke="#9CA3AF" stroke-width="0.6"/><line x1="406.8" y1="58.5" x2="406.8" y2="65.5" stroke="#9CA3AF" stroke-width="0.6"/><line x1="406.1" y1="58.5" x2="406.1" y2="65.5" stroke="#9CA3AF" stroke-width="0.6"/><line x1="405.9" y1="58.5" x2="405.9" y2="65.5" stroke="#9CA3AF" stroke-width="0.6"/><line x1="403.2" y1="58.5" x2="403.2" y2="65.5" stroke="#9CA3AF" stroke-width="0.6"/><line x1="403.6" y1="58.5" x2="403.6" y2="65.5" stroke="#9CA3AF" stroke-width="0.6"/><line x1="403.1" y1="58.5" x2="403.1" y2="65.5" stroke="#9CA3AF" stroke-width="0.6"/><line x1="404.3" y1="58.5" x2="404.3" y2="65.5" stroke="#9CA3AF" stroke-width="0.6"/><line x1="402.7" y1="58.5" x2="402.7" y2="65.5" stroke="#9CA3AF" stroke-width="0.6"/><line x1="404.5" y1="55.0" x2="404.5" y2="69.0" stroke="#0F766E" stroke-width="1.8" stroke-linecap="round"/><circle cx="368.7" cy="62.0" r="3" fill="none" stroke="#374151" stroke-width="0.9"/><text x="490.0" y="66.0" font-size="10.2" fill="#111827" font-family="JetBrains Mono, monospace">27.2%</text><text x="536.0" y="66.0" font-size="10.2" fill="#374151" font-family="JetBrains Mono, monospace">18.6%</text><text x="584.0" y="66.0" font-size="10.2" fill="#374151" font-family="JetBrains Mono, monospace">16 of 16</text><text x="0.0" y="86.0" font-size="10.8" fill="#111827" font-weight="600">Estonia</text><line x1="325.5" y1="82.0" x2="333.7" y2="82.0" stroke="#9CA3AF" stroke-width="0.6"/><line x1="330.5" y1="78.5" x2="330.5" y2="85.5" stroke="#9CA3AF" stroke-width="0.6"/><line x1="333.7" y1="78.5" x2="333.7" y2="85.5" stroke="#9CA3AF" stroke-width="0.6"/><line x1="329.9" y1="78.5" x2="329.9" y2="85.5" stroke="#9CA3AF" stroke-width="0.6"/><line x1="326.1" y1="78.5" x2="326.1" y2="85.5" stroke="#9CA3AF" stroke-width="0.6"/><line x1="325.5" y1="78.5" x2="325.5" y2="85.5" stroke="#9CA3AF" stroke-width="0.6"/><line x1="325.7" y1="78.5" x2="325.7" y2="85.5" stroke="#9CA3AF" stroke-width="0.6"/><line x1="332.1" y1="78.5" x2="332.1" y2="85.5" stroke="#9CA3AF" stroke-width="0.6"/><line x1="330.4" y1="78.5" x2="330.4" y2="85.5" stroke="#9CA3AF" stroke-width="0.6"/><line x1="329.6" y1="78.5" x2="329.6" y2="85.5" stroke="#9CA3AF" stroke-width="0.6"/><line x1="327.9" y1="78.5" x2="327.9" y2="85.5" stroke="#9CA3AF" stroke-width="0.6"/><line x1="328.1" y1="78.5" x2="328.1" y2="85.5" stroke="#9CA3AF" stroke-width="0.6"/><line x1="331.0" y1="78.5" x2="331.0" y2="85.5" stroke="#9CA3AF" stroke-width="0.6"/><line x1="329.8" y1="78.5" x2="329.8" y2="85.5" stroke="#9CA3AF" stroke-width="0.6"/><line x1="329.4" y1="78.5" x2="329.4" y2="85.5" stroke="#9CA3AF" stroke-width="0.6"/><line x1="333.7" y1="78.5" x2="333.7" y2="85.5" stroke="#9CA3AF" stroke-width="0.6"/><line x1="325.5" y1="75.0" x2="325.5" y2="89.0" stroke="#0F766E" stroke-width="1.8" stroke-linecap="round"/><circle cx="277.1" cy="82.0" r="3" fill="none" stroke="#374151" stroke-width="0.9"/><text x="490.0" y="86.0" font-size="10.2" fill="#111827" font-family="JetBrains Mono, monospace">11.8%</text><text x="536.0" y="86.0" font-size="10.2" fill="#374151" font-family="JetBrains Mono, monospace">7.1%</text><text x="584.0" y="86.0" font-size="10.2" fill="#374151" font-family="JetBrains Mono, monospace">16 of 16</text><text x="0.0" y="106.0" font-size="10.8" fill="#111827" font-weight="600">Hungary</text><line x1="312.6" y1="102.0" x2="322.9" y2="102.0" stroke="#9CA3AF" stroke-width="0.6"/><line x1="316.2" y1="98.5" x2="316.2" y2="105.5" stroke="#9CA3AF" stroke-width="0.6"/><line x1="318.1" y1="98.5" x2="318.1" y2="105.5" stroke="#9CA3AF" stroke-width="0.6"/><line x1="320.6" y1="98.5" x2="320.6" y2="105.5" stroke="#9CA3AF" stroke-width="0.6"/><line x1="322.9" y1="98.5" x2="322.9" y2="105.5" stroke="#9CA3AF" stroke-width="0.6"/><line x1="318.2" y1="98.5" x2="318.2" y2="105.5" stroke="#9CA3AF" stroke-width="0.6"/><line x1="316.6" y1="98.5" x2="316.6" y2="105.5" stroke="#9CA3AF" stroke-width="0.6"/><line x1="312.6" y1="98.5" x2="312.6" y2="105.5" stroke="#9CA3AF" stroke-width="0.6"/><line x1="313.3" y1="98.5" x2="313.3" y2="105.5" stroke="#9CA3AF" stroke-width="0.6"/><line x1="321.7" y1="98.5" x2="321.7" y2="105.5" stroke="#9CA3AF" stroke-width="0.6"/><line x1="321.7" y1="98.5" x2="321.7" y2="105.5" stroke="#9CA3AF" stroke-width="0.6"/><line x1="317.6" y1="98.5" x2="317.6" y2="105.5" stroke="#9CA3AF" stroke-width="0.6"/><line x1="316.7" y1="98.5" x2="316.7" y2="105.5" stroke="#9CA3AF" stroke-width="0.6"/><line x1="320.7" y1="98.5" x2="320.7" y2="105.5" stroke="#9CA3AF" stroke-width="0.6"/><line x1="318.1" y1="98.5" x2="318.1" y2="105.5" stroke="#9CA3AF" stroke-width="0.6"/><line x1="314.5" y1="98.5" x2="314.5" y2="105.5" stroke="#9CA3AF" stroke-width="0.6"/><line x1="315.9" y1="95.0" x2="315.9" y2="109.0" stroke="#0F766E" stroke-width="1.8" stroke-linecap="round"/><circle cx="268.3" cy="102.0" r="3" fill="none" stroke="#374151" stroke-width="0.9"/><text x="490.0" y="106.0" font-size="10.2" fill="#111827" font-family="JetBrains Mono, monospace">10.7%</text><text x="536.0" y="106.0" font-size="10.2" fill="#374151" font-family="JetBrains Mono, monospace">6.5%</text><text x="584.0" y="106.0" font-size="10.2" fill="#374151" font-family="JetBrains Mono, monospace">16 of 16</text><text x="0.0" y="126.0" font-size="10.8" fill="#111827" font-weight="600">Sweden</text><line x1="239.6" y1="122.0" x2="253.4" y2="122.0" stroke="#9CA3AF" stroke-width="0.6"/><line x1="245.6" y1="118.5" x2="245.6" y2="125.5" stroke="#9CA3AF" stroke-width="0.6"/><line x1="241.4" y1="118.5" x2="241.4" y2="125.5" stroke="#9CA3AF" stroke-width="0.6"/><line x1="250.3" y1="118.5" x2="250.3" y2="125.5" stroke="#9CA3AF" stroke-width="0.6"/><line x1="243.7" y1="118.5" x2="243.7" y2="125.5" stroke="#9CA3AF" stroke-width="0.6"/><line x1="249.6" y1="118.5" x2="249.6" y2="125.5" stroke="#9CA3AF" stroke-width="0.6"/><line x1="252.6" y1="118.5" x2="252.6" y2="125.5" stroke="#9CA3AF" stroke-width="0.6"/><line x1="253.4" y1="118.5" x2="253.4" y2="125.5" stroke="#9CA3AF" stroke-width="0.6"/><line x1="239.6" y1="118.5" x2="239.6" y2="125.5" stroke="#9CA3AF" stroke-width="0.6"/><line x1="248.0" y1="118.5" x2="248.0" y2="125.5" stroke="#9CA3AF" stroke-width="0.6"/><line x1="240.6" y1="118.5" x2="240.6" y2="125.5" stroke="#9CA3AF" stroke-width="0.6"/><line x1="247.6" y1="118.5" x2="247.6" y2="125.5" stroke="#9CA3AF" stroke-width="0.6"/><line x1="249.2" y1="118.5" x2="249.2" y2="125.5" stroke="#9CA3AF" stroke-width="0.6"/><line x1="244.8" y1="118.5" x2="244.8" y2="125.5" stroke="#9CA3AF" stroke-width="0.6"/><line x1="244.8" y1="118.5" x2="244.8" y2="125.5" stroke="#9CA3AF" stroke-width="0.6"/><line x1="244.8" y1="118.5" x2="244.8" y2="125.5" stroke="#9CA3AF" stroke-width="0.6"/><line x1="245.0" y1="115.0" x2="245.0" y2="129.0" stroke="#0F766E" stroke-width="1.8" stroke-linecap="round"/><circle cx="186.7" cy="122.0" r="3" fill="none" stroke="#374151" stroke-width="0.9"/><text x="490.0" y="126.0" font-size="10.2" fill="#111827" font-family="JetBrains Mono, monospace">5.1%</text><text x="536.0" y="126.0" font-size="10.2" fill="#374151" font-family="JetBrains Mono, monospace">2.8%</text><text x="584.0" y="126.0" font-size="10.2" fill="#374151" font-family="JetBrains Mono, monospace">13 of 16</text><text x="0.0" y="146.0" font-size="10.8" fill="#6B7280" font-weight="400">Norway</text><line x1="183.9" y1="142.0" x2="205.7" y2="142.0" stroke="#9CA3AF" stroke-width="0.6"/><line x1="191.1" y1="138.5" x2="191.1" y2="145.5" stroke="#9CA3AF" stroke-width="0.6"/><line x1="190.1" y1="138.5" x2="190.1" y2="145.5" stroke="#9CA3AF" stroke-width="0.6"/><line x1="192.1" y1="138.5" x2="192.1" y2="145.5" stroke="#9CA3AF" stroke-width="0.6"/><line x1="190.4" y1="138.5" x2="190.4" y2="145.5" stroke="#9CA3AF" stroke-width="0.6"/><line x1="205.7" y1="138.5" x2="205.7" y2="145.5" stroke="#9CA3AF" stroke-width="0.6"/><line x1="188.4" y1="138.5" x2="188.4" y2="145.5" stroke="#9CA3AF" stroke-width="0.6"/><line x1="191.4" y1="138.5" x2="191.4" y2="145.5" stroke="#9CA3AF" stroke-width="0.6"/><line x1="189.8" y1="138.5" x2="189.8" y2="145.5" stroke="#9CA3AF" stroke-width="0.6"/><line x1="194.6" y1="138.5" x2="194.6" y2="145.5" stroke="#9CA3AF" stroke-width="0.6"/><line x1="186.0" y1="138.5" x2="186.0" y2="145.5" stroke="#9CA3AF" stroke-width="0.6"/><line x1="183.9" y1="138.5" x2="183.9" y2="145.5" stroke="#9CA3AF" stroke-width="0.6"/><line x1="192.7" y1="138.5" x2="192.7" y2="145.5" stroke="#9CA3AF" stroke-width="0.6"/><line x1="195.0" y1="138.5" x2="195.0" y2="145.5" stroke="#9CA3AF" stroke-width="0.6"/><line x1="188.8" y1="138.5" x2="188.8" y2="145.5" stroke="#9CA3AF" stroke-width="0.6"/><line x1="193.0" y1="138.5" x2="193.0" y2="145.5" stroke="#9CA3AF" stroke-width="0.6"/><line x1="188.4" y1="135.0" x2="188.4" y2="149.0" stroke="#374151" stroke-width="1.8" stroke-linecap="round"/><circle cx="123.4" cy="142.0" r="3" fill="none" stroke="#374151" stroke-width="0.9"/><text x="490.0" y="146.0" font-size="10.2" fill="#111827" font-family="JetBrains Mono, monospace">2.8%</text><text x="536.0" y="146.0" font-size="10.2" fill="#374151" font-family="JetBrains Mono, monospace">1.4%</text><text x="584.0" y="146.0" font-size="10.2" fill="#374151" font-family="JetBrains Mono, monospace">0 of 16</text><text x="0.0" y="166.0" font-size="10.8" fill="#6B7280" font-weight="400">Australia</text><line x1="175.0" y1="162.0" x2="192.4" y2="162.0" stroke="#9CA3AF" stroke-width="0.6"/><line x1="192.4" y1="158.5" x2="192.4" y2="165.5" stroke="#9CA3AF" stroke-width="0.6"/><line x1="187.4" y1="158.5" x2="187.4" y2="165.5" stroke="#9CA3AF" stroke-width="0.6"/><line x1="190.4" y1="158.5" x2="190.4" y2="165.5" stroke="#9CA3AF" stroke-width="0.6"/><line x1="180.3" y1="158.5" x2="180.3" y2="165.5" stroke="#9CA3AF" stroke-width="0.6"/><line x1="191.4" y1="158.5" x2="191.4" y2="165.5" stroke="#9CA3AF" stroke-width="0.6"/><line x1="180.6" y1="158.5" x2="180.6" y2="165.5" stroke="#9CA3AF" stroke-width="0.6"/><line x1="181.7" y1="158.5" x2="181.7" y2="165.5" stroke="#9CA3AF" stroke-width="0.6"/><line x1="175.0" y1="158.5" x2="175.0" y2="165.5" stroke="#9CA3AF" stroke-width="0.6"/><line x1="187.0" y1="158.5" x2="187.0" y2="165.5" stroke="#9CA3AF" stroke-width="0.6"/><line x1="188.4" y1="158.5" x2="188.4" y2="165.5" stroke="#9CA3AF" stroke-width="0.6"/><line x1="190.1" y1="158.5" x2="190.1" y2="165.5" stroke="#9CA3AF" stroke-width="0.6"/><line x1="187.4" y1="158.5" x2="187.4" y2="165.5" stroke="#9CA3AF" stroke-width="0.6"/><line x1="183.2" y1="158.5" x2="183.2" y2="165.5" stroke="#9CA3AF" stroke-width="0.6"/><line x1="184.3" y1="158.5" x2="184.3" y2="165.5" stroke="#9CA3AF" stroke-width="0.6"/><line x1="187.7" y1="158.5" x2="187.7" y2="165.5" stroke="#9CA3AF" stroke-width="0.6"/><line x1="182.8" y1="155.0" x2="182.8" y2="169.0" stroke="#374151" stroke-width="1.8" stroke-linecap="round"/><circle cx="110.5" cy="162.0" r="3" fill="none" stroke="#374151" stroke-width="0.9"/><text x="490.0" y="166.0" font-size="10.2" fill="#111827" font-family="JetBrains Mono, monospace">2.6%</text><text x="536.0" y="166.0" font-size="10.2" fill="#374151" font-family="JetBrains Mono, monospace">1.2%</text><text x="584.0" y="166.0" font-size="10.2" fill="#374151" font-family="JetBrains Mono, monospace">0 of 16</text><text x="0.0" y="186.0" font-size="10.8" fill="#6B7280" font-weight="400">France</text><line x1="163.4" y1="182.0" x2="186.0" y2="182.0" stroke="#9CA3AF" stroke-width="0.6"/><line x1="179.5" y1="178.5" x2="179.5" y2="185.5" stroke="#9CA3AF" stroke-width="0.6"/><line x1="177.7" y1="178.5" x2="177.7" y2="185.5" stroke="#9CA3AF" stroke-width="0.6"/><line x1="180.6" y1="178.5" x2="180.6" y2="185.5" stroke="#9CA3AF" stroke-width="0.6"/><line x1="178.4" y1="178.5" x2="178.4" y2="185.5" stroke="#9CA3AF" stroke-width="0.6"/><line x1="178.4" y1="178.5" x2="178.4" y2="185.5" stroke="#9CA3AF" stroke-width="0.6"/><line x1="170.2" y1="178.5" x2="170.2" y2="185.5" stroke="#9CA3AF" stroke-width="0.6"/><line x1="180.6" y1="178.5" x2="180.6" y2="185.5" stroke="#9CA3AF" stroke-width="0.6"/><line x1="183.9" y1="178.5" x2="183.9" y2="185.5" stroke="#9CA3AF" stroke-width="0.6"/><line x1="175.0" y1="178.5" x2="175.0" y2="185.5" stroke="#9CA3AF" stroke-width="0.6"/><line x1="171.8" y1="178.5" x2="171.8" y2="185.5" stroke="#9CA3AF" stroke-width="0.6"/><line x1="168.5" y1="178.5" x2="168.5" y2="185.5" stroke="#9CA3AF" stroke-width="0.6"/><line x1="181.7" y1="178.5" x2="181.7" y2="185.5" stroke="#9CA3AF" stroke-width="0.6"/><line x1="186.0" y1="178.5" x2="186.0" y2="185.5" stroke="#9CA3AF" stroke-width="0.6"/><line x1="163.4" y1="178.5" x2="163.4" y2="185.5" stroke="#9CA3AF" stroke-width="0.6"/><line x1="182.8" y1="178.5" x2="182.8" y2="185.5" stroke="#9CA3AF" stroke-width="0.6"/><line x1="182.5" y1="175.0" x2="182.5" y2="189.0" stroke="#374151" stroke-width="1.8" stroke-linecap="round"/><circle cx="114.3" cy="182.0" r="3" fill="none" stroke="#374151" stroke-width="0.9"/><text x="490.0" y="186.0" font-size="10.2" fill="#111827" font-family="JetBrains Mono, monospace">2.6%</text><text x="536.0" y="186.0" font-size="10.2" fill="#374151" font-family="JetBrains Mono, monospace">1.3%</text><text x="584.0" y="186.0" font-size="10.2" fill="#374151" font-family="JetBrains Mono, monospace">0 of 16</text><text x="490.0" y="18.0" font-size="9.9" fill="#6B7280">first or</text><text x="490.0" y="29.0" font-size="9.9" fill="#6B7280">tied</text><text x="536.0" y="18.0" font-size="9.9" fill="#6B7280">first</text><text x="536.0" y="29.0" font-size="9.9" fill="#6B7280">alone</text><text x="584.0" y="18.0" font-size="9.9" fill="#6B7280">seeds with it</text><text x="584.0" y="29.0" font-size="9.9" fill="#6B7280">in lead group</text><text x="90.0" y="224.0" font-size="9.9" fill="#374151">Share of draws ranked first (ties share first place), log scale.</text><line x1="90.0" y1="234.0" x2="90.0" y2="246.0" stroke="#0F766E" stroke-width="1.8" stroke-linecap="round"/><text x="96.0" y="243.0" font-size="9.9" fill="#374151">published seed</text><line x1="182.0" y1="237.0" x2="182.0" y2="243.0" stroke="#9CA3AF" stroke-width="0.6"/><line x1="186.0" y1="237.0" x2="186.0" y2="243.0" stroke="#9CA3AF" stroke-width="0.6"/><text x="191.0" y="243.0" font-size="9.9" fill="#374151">the 15 other seeds</text><circle cx="302.0" cy="240.0" r="3" fill="none" stroke="#374151" stroke-width="0.9"/><text x="309.0" y="243.0" font-size="9.9" fill="#374151">first alone, published seed</text><text x="0.0" y="260.0" font-size="8.6" fill="#6B7280">Shown: every country in the lead group under any seed, or first in at least 2% of draws under any seed. 10,000 draws per seed of the main model; ranks are</text><text x="0.0" y="271.0" font-size="8.6" fill="#6B7280">competition ranks on the rounded score. Monte Carlo standard error at 5%: 0.0022. Seeds listed in analysis/robustness/seed_sweep.json. Source: Health Record</text><text x="0.0" y="282.0" font-size="8.6" fill="#6B7280">Rights Index, SuperTruth.</text></svg>